{"glyphs":{":":{"x_min":0,"x_max":282,"ha":282,"o":"m 106 398 q 106 422 124 440 q 141 457 166 457 q 190 457 208 440 q 225 422 225 398 q 225 374 208 356 q 190 338 166 338 q 142 338 124 356 q 106 374 106 398 z m -3 48 q -3 73 15 90 q 32 108 57 108 q 81 108 99 90 q 116 73 116 48 q 116 24 99 6 q 81 -11 57 -11 q 33 -11 15 7 q -3 24 -3 48 z"},"$":{"x_min":0,"x_max":519,"ha":519,"o":"m 124 -66 l 146 5 q 78 18 37 62 q -4 106 -4 167 q -4 206 16 232 q 37 259 66 259 q 88 259 103 243 q 117 228 117 205 q 117 188 107 174 q 97 160 81 155 q 77 154 70 153 q 43 148 43 127 q 43 91 73 64 q 103 37 153 28 l 247 325 q 174 371 144 412 q 114 454 114 507 q 114 587 178 639 q 242 691 343 691 l 362 691 l 383 756 l 412 756 l 390 688 q 454 675 489 642 q 523 608 523 559 q 523 528 506 510 q 489 491 460 491 q 440 491 427 505 q 414 518 414 538 q 414 564 437 581 q 459 598 459 607 q 459 626 440 640 q 421 654 383 665 l 303 411 q 375 370 410 323 q 444 276 444 220 q 444 129 369 65 q 295 0 185 0 l 178 0 l 174 0 l 153 -66 z m 279 426 l 356 669 l 346 669 q 276 669 233 634 q 189 599 189 545 q 189 510 209 482 q 230 455 279 426 z m 181 24 l 185 24 q 263 24 318 69 q 373 114 373 175 q 373 212 348 245 q 323 279 272 311 z"},"?":{"x_min":0,"x_max":491,"ha":491,"o":"m 360 303 q 340 247 300 215 q 259 183 209 183 q 161 183 130 213 q 99 243 99 289 q 99 336 133 374 q 167 412 237 442 q 263 454 310 471 q 443 523 443 592 q 443 634 404 665 q 365 696 308 696 q 259 696 224 673 q 189 650 189 621 q 189 608 198 585 q 206 563 206 550 q 206 527 192 513 q 179 499 157 499 q 132 499 118 515 q 103 532 103 559 q 103 617 167 667 q 232 718 315 718 q 391 718 441 672 q 491 627 491 560 q 491 511 471 476 q 451 442 407 414 q 373 392 288 362 q 258 352 243 346 q 185 325 162 305 q 139 286 139 260 q 139 236 158 220 q 177 205 207 205 q 251 205 285 230 q 318 255 339 303 z m 62 55 q 62 83 81 102 q 100 121 127 121 q 154 121 174 102 q 193 83 193 55 q 193 27 174 8 q 154 -11 127 -11 q 101 -11 81 9 q 62 28 62 55 z"},"<":{"x_min":0,"x_max":833,"ha":833,"o":"m 704 559 l 704 497 l 216 298 l 704 100 l 704 37 l 129 273 l 129 323 z"},"'":{"x_min":0,"x_max":170,"ha":170,"o":"m 93 422 l 77 422 l 45 645 q 44 649 44 653 q 44 657 44 664 q 44 688 54 701 q 65 714 85 714 q 105 714 116 701 q 127 688 127 665 q 127 661 125 648 q 125 646 125 645 z"},"=":{"x_min":0,"x_max":833,"ha":833,"o":"m 124 233 l 709 233 l 709 176 l 124 176 z m 124 420 l 709 420 l 709 363 l 124 363 z"},"a":{"x_min":0,"x_max":595,"ha":595,"o":"m 318 120 q 277 56 231 23 q 186 -10 139 -10 q 80 -10 43 36 q 6 82 6 158 q 6 228 38 301 q 71 375 128 433 q 165 471 208 491 q 250 511 292 511 q 343 511 372 485 q 400 459 405 408 l 435 505 l 522 505 l 392 93 q 392 91 390 88 q 383 64 383 49 q 383 35 390 28 q 396 21 409 21 q 437 21 472 61 q 507 101 541 171 l 562 171 q 522 82 478 36 q 433 -10 386 -10 q 353 -10 334 13 q 315 37 315 78 q 315 87 316 97 q 316 107 318 120 z m 374 322 q 380 340 383 358 q 386 376 386 392 q 386 435 363 462 q 339 489 303 489 q 269 489 240 465 q 210 441 184 392 q 142 315 113 223 q 85 131 85 84 q 85 50 101 33 q 117 15 147 15 q 203 15 260 77 q 317 139 346 232 z"},"L":{"x_min":0,"x_max":620,"ha":620,"o":"m 444 701 l 436 674 l 387 674 q 353 674 337 662 q 322 649 307 604 l 146 91 q 145 88 144 84 q 137 62 137 55 q 137 41 148 35 q 158 30 189 30 l 212 30 q 324 30 399 88 q 475 146 526 271 l 552 271 l 470 0 l -83 0 l -73 30 l -24 30 q 10 30 26 42 q 42 55 56 100 l 215 604 q 219 617 222 629 q 224 641 224 649 q 224 663 214 668 q 204 674 179 674 l 130 674 l 139 701 z"},"3":{"x_min":0,"x_max":519,"ha":519,"o":"m 277 370 q 346 348 380 307 q 415 267 415 210 q 415 117 346 55 q 277 -7 171 -7 q 98 -7 46 38 q -7 82 -7 140 q -7 181 16 208 q 38 235 71 235 q 102 235 120 217 q 138 200 138 170 q 138 153 127 138 q 116 123 97 112 q 93 110 85 106 q 60 95 60 77 q 60 56 88 38 q 115 20 151 20 q 188 20 221 40 q 253 61 274 98 q 293 131 305 176 q 318 221 318 255 q 318 312 282 337 q 246 363 165 363 l 150 363 l 157 391 q 166 391 182 391 q 197 390 204 390 q 245 390 270 396 q 295 401 314 413 q 348 434 369 480 q 390 526 390 579 q 390 627 362 654 q 333 681 284 681 q 244 681 217 667 q 190 653 190 633 q 190 620 214 599 q 238 577 238 552 q 238 528 221 511 q 204 495 178 495 q 150 495 132 516 q 114 537 114 570 q 114 629 166 667 q 219 705 302 705 q 383 705 435 659 q 487 612 487 541 q 487 466 434 423 q 380 380 277 370 z"},";":{"x_min":0,"x_max":282,"ha":282,"o":"m 106 398 q 106 422 124 440 q 141 457 166 457 q 190 457 208 440 q 225 422 225 398 q 225 374 208 356 q 190 338 166 338 q 142 338 124 356 q 106 374 106 398 z m -34 -159 l -47 -140 q 2 -109 25 -86 q 47 -63 47 -43 q 47 -27 22 1 q -3 30 -3 56 q -3 80 14 96 q 30 112 55 112 q 83 112 102 89 q 121 66 121 32 q 121 -19 81 -68 q 41 -118 -34 -159 z"},"J":{"x_min":0,"x_max":523,"ha":523,"o":"m 282 701 l 595 701 l 585 674 l 546 674 q 512 674 496 662 q 480 649 466 604 l 339 201 q 301 81 251 32 q 200 -16 119 -16 q 51 -16 8 25 q -36 67 -36 128 q -36 179 -12 211 q 12 243 49 243 q 76 243 94 226 q 111 209 111 182 q 111 159 99 144 q 87 130 61 123 q 60 123 56 122 q 17 110 17 83 q 17 56 42 35 q 68 14 103 14 q 148 14 175 45 q 203 76 240 191 l 374 604 q 379 619 381 630 q 384 641 384 648 q 384 662 373 668 q 363 674 338 674 l 272 674 z"},"V":{"x_min":0,"x_max":586,"ha":586,"o":"m 165 -16 l 172 624 q 172 655 162 665 q 152 674 114 674 l 70 674 l 79 701 l 366 701 l 358 674 l 317 674 q 281 674 271 664 q 261 654 260 618 l 251 141 l 501 566 q 514 589 521 605 q 528 622 528 631 q 528 653 511 663 q 494 674 459 674 l 436 674 l 445 701 l 693 701 l 684 674 l 681 674 q 635 674 604 650 q 572 626 528 553 l 190 -16 z"},"\"":{"x_min":0,"x_max":331,"ha":331,"o":"m 253 422 l 238 422 l 206 645 q 206 646 206 648 q 204 659 204 664 q 204 688 215 701 q 226 714 246 714 q 266 714 276 701 q 287 688 287 665 q 287 658 287 654 q 287 649 286 645 z m 93 422 l 77 422 l 46 645 q 45 653 44 658 q 44 662 44 665 q 44 688 55 701 q 65 714 85 714 q 105 714 116 701 q 127 688 127 665 q 127 661 125 648 q 125 646 125 645 z"},"7":{"x_min":0,"x_max":519,"ha":519,"o":"m 539 697 q 533 659 516 621 q 499 583 470 542 q 458 525 395 452 q 333 378 299 316 q 275 273 265 234 q 254 195 253 131 l 253 130 q 250 -9 190 -9 q 163 -9 148 14 q 133 36 133 78 q 133 139 168 211 q 203 283 265 351 q 284 372 321 411 q 448 546 475 600 l 225 600 q 180 600 167 589 q 154 579 142 540 l 123 481 l 97 481 l 166 697 z"},"S":{"x_min":0,"x_max":597,"ha":597,"o":"m -25 0 l 73 310 l 98 310 q 93 282 91 264 q 89 247 89 232 q 89 137 140 78 q 192 19 273 19 q 334 19 375 61 q 416 103 416 166 q 416 245 286 332 l 284 333 q 208 383 179 425 q 150 467 150 521 q 150 600 207 657 q 264 714 344 714 q 377 714 407 704 q 438 694 466 674 q 472 670 482 662 q 511 638 526 638 q 541 638 554 654 q 568 670 578 701 l 604 701 l 519 433 l 493 433 q 500 461 502 480 q 505 499 505 515 q 505 590 459 639 q 414 687 343 687 q 290 687 255 655 q 221 623 221 574 q 221 533 246 500 q 271 466 351 414 q 433 360 462 316 q 491 273 491 215 q 491 121 427 55 q 364 -10 270 -10 q 242 -10 212 0 q 182 9 153 28 q 145 33 131 42 q 92 70 71 70 q 49 70 31 53 q 14 36 0 0 z"},"}":{"x_min":0,"x_max":500,"ha":500,"o":"m 87 740 l 92 740 q 197 740 237 704 q 277 668 277 571 l 277 467 q 277 390 305 361 q 333 333 414 325 l 414 296 q 334 290 306 260 q 277 231 277 154 l 277 50 q 277 -47 237 -83 q 197 -119 92 -119 l 87 -119 l 87 -94 q 157 -93 182 -68 q 207 -42 207 34 l 207 104 q 207 214 237 255 q 267 295 347 310 q 267 325 237 365 q 207 406 207 516 l 207 586 q 207 662 182 688 q 156 714 87 715 z"},"Z":{"x_min":0,"x_max":634,"ha":634,"o":"m -22 0 l -20 30 l 521 672 l 435 672 q 321 672 248 620 q 176 568 128 453 l 100 453 l 179 701 l 633 701 l 631 672 l 85 30 l 158 30 q 317 30 396 83 q 474 137 531 275 l 559 275 l 472 0 z"},"x":{"x_min":0,"x_max":539,"ha":539,"o":"m 198 109 q 170 53 134 23 q 97 -8 59 -8 q 25 -8 4 14 q -16 36 -16 72 q -16 106 3 130 q 22 154 49 154 q 69 154 83 140 q 97 126 97 107 q 97 89 85 75 q 74 61 54 53 q 52 52 48 51 q 27 43 27 30 q 27 21 35 16 q 43 10 56 10 q 94 10 126 54 q 159 98 186 185 l 252 395 q 257 411 260 426 q 263 440 263 452 q 263 466 251 477 q 239 487 222 487 q 176 487 134 442 q 92 396 59 310 l 38 310 q 72 406 122 459 q 172 512 227 512 q 265 512 290 484 q 315 456 315 414 q 315 409 315 404 q 314 398 314 393 q 346 452 379 482 q 413 511 450 511 q 482 511 502 490 q 522 469 522 436 q 522 402 503 380 q 485 358 458 358 q 436 358 422 371 q 408 383 408 403 q 408 421 418 433 q 429 445 452 454 q 467 459 471 463 q 476 467 476 474 q 476 481 469 487 q 462 492 452 492 q 415 492 380 448 q 346 404 321 325 l 259 126 q 258 123 256 116 q 245 79 245 61 q 245 41 256 29 q 268 18 288 18 q 326 18 368 58 q 411 98 453 173 l 476 173 q 431 85 380 39 q 330 -7 279 -7 q 241 -7 219 16 q 196 40 196 78 q 196 83 196 90 q 197 97 198 109 z"},")":{"x_min":0,"x_max":359,"ha":359,"o":"m 187 718 q 230 644 252 566 q 274 488 274 409 q 274 233 177 79 q 81 -75 -100 -186 l -110 -169 q -52 -126 -5 -65 q 41 -5 81 80 q 137 199 170 327 q 204 455 204 537 q 204 584 195 628 q 186 672 168 707 z"},"&":{"x_min":0,"x_max":769,"ha":769,"o":"m 382 442 q 476 469 526 519 q 576 568 576 633 q 576 662 560 678 q 544 694 516 694 q 456 694 422 631 q 389 568 382 442 z m 326 92 q 304 144 293 201 q 283 259 283 336 q 283 349 284 365 q 285 381 287 400 q 192 381 147 328 q 102 275 102 183 q 102 111 132 69 q 161 26 210 26 q 239 26 269 43 q 299 60 326 92 z m 673 169 q 641 84 588 38 q 535 -9 472 -9 q 428 -9 395 11 q 362 31 336 73 q 298 32 256 12 q 214 -9 168 -9 q 97 -9 52 39 q 7 86 7 161 q 7 259 79 326 q 152 393 290 421 q 312 550 377 633 q 442 715 518 715 q 563 715 592 689 q 620 663 620 621 q 620 559 557 505 q 494 452 383 422 q 381 398 380 377 q 379 356 379 339 q 379 306 381 268 q 383 231 389 164 q 417 208 459 282 q 541 427 609 427 q 646 427 672 403 q 698 379 698 346 q 698 318 681 301 q 665 283 638 283 q 614 283 600 298 q 585 313 585 337 q 585 354 595 371 q 605 389 605 391 q 605 396 600 399 q 595 403 590 403 q 551 403 486 286 q 433 193 393 135 q 403 82 431 53 q 458 24 498 24 q 540 24 579 61 q 618 99 651 169 z"},"_":{"x_min":0,"x_max":500,"ha":500,"o":"m 0 -178 l 500 -178 l 500 -236 l 0 -236 z"},"v":{"x_min":0,"x_max":569,"ha":569,"o":"m -3 306 q 29 402 76 458 q 124 513 175 513 q 216 513 242 483 q 267 453 267 403 q 267 363 251 314 q 235 266 205 211 q 197 197 182 171 q 136 92 136 64 q 136 41 152 26 q 167 12 194 12 q 231 12 273 40 q 315 67 361 121 q 409 179 435 233 q 460 287 460 332 q 460 354 454 369 q 447 384 433 396 q 429 399 420 407 q 386 433 386 462 q 386 484 401 499 q 417 514 438 514 q 469 514 488 489 q 506 463 506 419 q 506 354 478 278 q 450 202 399 133 q 347 62 292 25 q 238 -12 186 -12 q 138 -12 109 19 q 79 49 79 99 q 79 140 95 190 q 112 240 149 312 q 155 323 166 344 q 205 417 205 445 q 205 465 195 476 q 186 487 168 487 q 129 487 90 440 q 51 394 17 306 z"},"O":{"x_min":0,"x_max":701,"ha":701,"o":"m 433 691 q 378 691 329 660 q 280 629 243 571 q 225 542 206 501 q 187 460 169 413 q 142 336 127 276 q 113 216 113 175 q 113 99 153 55 q 192 11 261 11 q 325 11 377 47 q 429 83 470 157 q 522 251 553 353 q 584 454 584 523 q 584 603 544 647 q 504 691 433 691 z m 426 718 q 543 718 610 647 q 677 577 677 455 q 677 358 633 260 q 588 162 513 91 q 458 39 393 11 q 329 -16 264 -16 q 158 -16 91 58 q 24 132 24 249 q 24 341 62 433 q 100 524 168 594 q 225 653 292 685 q 360 718 426 718 z"},"(":{"x_min":0,"x_max":359,"ha":359,"o":"m 126 -186 q 83 -112 61 -34 q 39 43 39 123 q 39 299 136 453 q 232 607 413 718 l 423 701 q 363 656 317 595 q 270 534 232 452 q 176 333 143 205 q 109 77 109 -5 q 109 -53 118 -96 q 127 -140 145 -175 z"},"C":{"x_min":0,"x_max":616,"ha":616,"o":"m 542 264 q 495 127 417 55 q 339 -17 238 -17 q 145 -17 84 54 q 24 125 24 235 q 24 320 58 411 q 92 502 152 579 q 203 644 266 679 q 330 715 393 715 q 447 715 506 682 q 564 650 577 650 q 597 650 613 663 q 628 676 637 701 l 663 701 l 576 427 l 551 427 q 554 454 555 474 q 556 495 556 511 q 556 588 513 637 q 471 686 404 686 q 351 686 308 650 q 266 613 225 532 q 175 432 144 327 q 114 223 114 161 q 114 91 151 52 q 188 12 252 12 q 333 12 400 77 q 467 142 513 264 z"},"W":{"x_min":0,"x_max":910,"ha":910,"o":"m 488 -16 l 493 494 l 190 -16 l 165 -16 l 172 624 q 172 655 162 665 q 152 674 114 674 l 70 674 l 79 701 l 366 701 l 358 674 l 317 674 q 280 674 271 664 q 261 654 260 618 l 251 141 l 494 552 l 495 624 l 495 629 q 495 656 484 665 q 474 674 437 674 l 415 674 l 421 701 l 690 701 l 681 674 l 641 674 q 605 674 594 663 q 584 653 583 618 l 574 141 l 820 559 q 837 589 843 604 q 849 618 849 630 q 849 653 833 663 q 817 674 783 674 l 759 674 l 768 701 l 1016 701 l 1008 674 l 1005 674 q 959 674 927 650 q 894 626 851 553 l 513 -16 z"},"A":{"x_min":0,"x_max":623,"ha":623,"o":"m -113 0 l -105 30 q -62 30 -30 51 q 1 72 57 156 l 419 701 l 456 701 l 438 101 l 438 87 q 438 51 448 41 q 458 30 501 30 l 543 30 l 534 0 l 225 0 l 234 30 l 277 30 q 319 30 331 42 q 343 53 346 101 l 353 218 l 136 218 l 94 152 q 78 126 69 106 q 61 87 61 74 q 61 51 77 40 q 93 29 126 29 q 128 29 134 29 q 140 30 143 30 l 133 0 z m 159 252 l 353 252 l 367 572 z"},"f":{"x_min":0,"x_max":340,"ha":340,"o":"m 283 597 l 253 505 l 344 505 l 333 470 l 242 470 l 94 0 l 4 0 l 152 470 l 64 470 l 75 505 l 163 505 q 193 614 238 665 q 284 717 350 717 q 396 717 424 693 q 452 670 452 631 q 452 603 435 583 q 418 564 393 564 q 372 564 359 577 q 345 590 345 610 q 345 633 365 653 q 385 673 385 678 q 385 686 376 692 q 367 698 354 698 q 316 698 283 598 z"},"Q":{"x_min":0,"x_max":701,"ha":701,"o":"m 187 28 q 203 19 222 14 q 240 10 263 10 q 271 10 282 11 q 292 13 305 16 q 309 41 311 52 q 312 63 312 71 q 312 103 296 121 q 280 138 251 138 q 221 138 203 114 q 185 90 185 51 q 185 47 187 35 q 187 31 187 28 z m 389 55 q 416 77 439 109 q 463 142 487 189 q 532 280 558 370 q 584 460 584 523 q 584 603 544 647 q 504 691 433 691 q 379 691 330 659 q 280 628 242 569 q 225 542 206 502 q 187 462 168 410 q 140 333 126 275 q 113 217 113 175 q 113 129 126 95 q 139 62 164 43 l 164 54 q 164 107 194 140 q 224 174 270 174 q 324 174 357 142 q 389 110 389 57 z m 302 -12 q 291 -15 280 -16 q 269 -17 256 -17 q 158 -17 91 59 q 24 134 24 249 q 24 341 62 432 q 100 523 168 594 q 225 653 292 685 q 360 718 426 718 q 542 718 610 647 q 677 577 677 455 q 677 317 599 197 q 521 76 392 16 q 389 -8 388 -24 q 386 -41 386 -50 q 386 -88 403 -109 q 420 -130 451 -130 q 492 -130 533 -87 q 575 -43 596 26 l 625 26 q 599 -65 544 -117 q 488 -168 416 -168 q 361 -168 331 -135 q 301 -102 301 -41 q 301 -34 301 -27 q 302 -20 302 -12 z"},"w":{"x_min":0,"x_max":850,"ha":850,"o":"m 17 307 l -4 307 q 34 408 80 459 q 127 511 180 511 q 223 511 248 483 q 272 454 272 404 q 272 363 255 315 q 239 267 200 197 l 192 182 q 140 89 140 60 q 140 40 153 26 q 167 13 187 13 q 239 13 308 100 q 377 187 416 307 l 480 505 l 569 505 l 445 111 q 440 95 438 81 q 435 67 435 59 q 435 38 446 26 q 457 15 478 15 q 511 15 556 44 q 601 72 642 121 q 689 176 717 236 q 745 295 745 337 q 745 355 740 367 q 734 380 719 394 q 715 398 706 406 q 667 439 667 466 q 667 487 682 502 q 696 516 718 516 q 748 516 768 486 q 788 455 788 407 q 788 337 753 255 q 718 173 657 104 q 607 47 557 17 q 508 -12 460 -12 q 415 -12 390 15 q 365 42 365 90 q 365 107 369 129 q 372 150 379 176 q 332 84 281 37 q 231 -10 180 -10 q 136 -10 109 21 q 83 52 83 105 q 83 176 146 298 q 154 312 158 320 q 186 374 196 401 q 206 427 206 442 q 206 461 195 473 q 184 486 167 486 q 131 486 91 438 q 51 391 17 307 z"},"-":{"x_min":0,"x_max":350,"ha":350,"o":"m 14 207 l 42 295 l 289 295 l 261 207 z"},"E":{"x_min":0,"x_max":646,"ha":646,"o":"m -83 0 l -73 30 l -24 30 q 10 30 26 42 q 42 55 56 100 l 215 604 q 219 617 222 629 q 224 641 224 649 q 224 663 214 668 q 204 674 179 674 l 130 674 l 139 701 l 669 701 l 585 426 l 558 426 q 567 462 571 487 q 575 512 575 532 q 575 608 537 641 q 498 674 409 674 l 389 674 q 348 674 335 664 q 322 654 308 611 l 235 377 l 283 377 q 352 377 387 408 q 422 439 444 521 l 471 521 l 364 180 l 336 180 q 346 211 351 234 q 356 257 356 275 q 356 315 333 332 q 310 349 250 349 l 226 349 l 143 87 q 140 78 139 69 q 137 61 137 55 q 137 41 148 35 q 158 30 189 30 l 235 30 q 357 30 425 82 q 492 133 532 256 l 562 256 l 481 0 z"},"s":{"x_min":0,"x_max":455,"ha":455,"o":"m 144 -10 q 70 -10 25 22 q -20 54 -20 106 q -20 137 -2 156 q 16 176 44 176 q 67 176 83 161 q 98 147 98 125 q 98 101 75 82 q 52 62 52 55 q 52 39 78 25 q 104 12 142 12 q 204 12 245 43 q 287 74 287 118 q 287 166 192 219 l 182 225 q 125 258 102 289 q 78 321 78 363 q 78 428 131 472 q 185 516 266 516 q 328 516 370 483 q 413 451 413 406 q 413 378 397 362 q 381 345 355 345 q 332 345 317 359 q 302 373 302 394 q 302 417 325 434 q 349 450 349 455 q 349 470 324 482 q 298 494 261 494 q 208 494 175 468 q 141 441 141 402 q 141 357 222 311 l 225 309 q 307 263 330 232 q 353 202 353 159 q 353 87 293 39 q 234 -10 144 -10 z"},">":{"x_min":0,"x_max":833,"ha":833,"o":"m 129 559 l 704 323 l 704 273 l 129 37 l 129 100 l 617 298 l 129 497 z"},"l":{"x_min":0,"x_max":340,"ha":340,"o":"m 55 200 l 184 608 q 188 622 191 633 q 193 643 193 648 q 193 667 185 672 q 177 678 144 678 l 112 678 l 120 706 q 130 706 142 705 q 153 705 176 705 q 212 705 244 707 q 276 708 306 712 l 113 93 q 113 92 112 90 q 104 66 104 49 q 104 35 111 28 q 117 21 130 21 q 157 21 192 61 q 227 101 261 171 l 283 171 q 243 82 198 35 q 153 -11 107 -11 q 70 -11 49 13 q 28 38 28 81 q 28 113 49 180 q 53 193 55 200 z"},"8":{"x_min":0,"x_max":519,"ha":519,"o":"m 306 411 q 376 420 417 461 q 457 502 457 563 q 457 615 420 650 q 384 684 328 684 q 266 684 226 653 q 187 622 187 573 q 187 539 212 503 q 237 468 306 411 z m 223 361 q 142 333 103 287 q 63 242 63 177 q 63 107 107 62 q 151 16 220 16 q 283 16 326 56 q 369 97 369 153 q 369 201 337 248 q 304 295 223 361 z m 206 377 q 159 420 140 454 q 121 488 121 527 q 121 605 179 656 q 238 706 331 706 q 410 706 461 663 q 512 620 512 553 q 512 487 464 445 q 416 404 326 392 q 393 335 421 290 q 448 245 448 193 q 448 105 384 48 q 319 -9 219 -9 q 125 -9 65 43 q 5 95 5 176 q 5 249 56 299 q 107 350 206 377 z"},"\\":{"x_min":0,"x_max":278,"ha":278,"o":"m 212 -93 l 161 -93 l 95 718 l 145 718 z"},"e":{"x_min":0,"x_max":470,"ha":470,"o":"m 120 234 q 227 246 294 302 q 362 358 362 429 q 362 459 345 477 q 329 495 301 495 q 255 495 209 428 q 163 362 120 234 z m 385 172 q 339 85 277 37 q 215 -11 151 -11 q 86 -11 46 35 q 7 81 7 157 q 7 222 38 291 q 69 361 123 418 q 169 466 218 491 q 268 515 319 515 q 368 515 399 488 q 429 460 429 417 q 429 342 345 287 q 261 232 111 209 l 108 199 q 87 121 87 90 q 87 56 107 36 q 127 15 160 15 q 211 15 266 57 q 321 100 362 172 z"},"b":{"x_min":0,"x_max":519,"ha":519,"o":"m 112 191 q 102 156 97 135 q 93 113 93 95 q 93 57 114 35 q 136 13 173 13 q 205 13 231 32 q 258 51 282 90 q 295 111 309 144 q 323 177 342 230 q 364 295 374 338 q 384 380 384 409 q 384 447 367 468 q 350 489 319 489 q 272 489 222 434 q 171 378 146 297 z m 79 678 l 87 706 q 97 706 109 705 q 121 705 144 705 q 180 705 212 707 q 244 708 274 712 l 177 405 q 211 459 249 486 q 287 513 330 513 q 390 513 426 466 q 461 419 461 338 q 461 266 438 201 q 415 137 372 87 q 332 40 282 14 q 233 -11 180 -11 q 107 -11 64 32 q 21 76 21 149 q 21 172 27 203 q 33 234 46 275 l 151 608 q 155 622 158 633 q 160 643 160 648 q 160 667 152 672 q 144 678 111 678 z"},"%":{"x_min":0,"x_max":741,"ha":741,"o":"m 113 440 q 113 406 133 384 q 153 362 185 362 q 208 362 228 376 q 249 391 265 420 q 288 461 306 521 q 323 581 323 620 q 323 651 303 670 q 284 689 252 689 q 230 689 210 676 q 191 663 175 636 q 150 595 131 536 q 113 478 113 440 z m 190 345 q 133 345 95 386 q 57 428 57 492 q 57 577 113 641 q 169 705 244 705 q 305 705 343 666 q 380 626 380 561 q 380 477 321 411 q 263 345 190 345 z m 420 85 q 420 50 440 29 q 459 7 491 7 q 514 7 535 22 q 556 37 572 65 q 595 105 613 166 q 630 227 630 266 q 630 296 610 315 q 591 334 559 334 q 537 334 517 321 q 498 308 482 281 q 457 240 438 181 q 420 122 420 85 z m 497 -9 q 439 -9 402 32 q 364 73 364 137 q 364 222 420 286 q 477 350 551 350 q 612 350 650 311 q 687 271 687 206 q 687 123 628 57 q 570 -9 497 -9 z m 139 -9 l 95 -9 l 598 706 l 642 706 z"},"m":{"x_min":0,"x_max":894,"ha":894,"o":"m 32 0 l 156 392 q 163 413 166 425 q 168 437 168 447 q 168 459 162 466 q 155 472 144 472 q 116 472 79 427 q 42 382 9 306 l -12 306 q 26 400 73 454 q 121 508 164 508 q 199 508 217 482 q 236 456 236 408 q 236 390 233 369 q 230 348 224 324 q 278 417 327 463 q 376 508 423 508 q 464 508 490 478 q 516 448 516 401 q 516 385 513 366 q 510 347 503 324 q 557 417 606 462 q 655 508 702 508 q 743 508 769 478 q 795 448 795 401 q 795 362 783 321 q 771 279 740 213 q 731 194 715 161 q 674 80 674 54 q 674 39 685 28 q 696 17 712 17 q 744 17 782 59 q 820 102 848 171 l 869 171 q 839 87 795 40 q 751 -8 706 -8 q 664 -8 637 24 q 611 56 611 108 q 611 141 626 188 q 642 234 671 290 q 680 308 697 338 q 738 411 738 440 q 738 461 726 473 q 714 486 695 486 q 635 486 559 377 q 483 268 430 95 l 401 0 l 311 0 l 436 395 q 441 409 443 423 q 446 436 446 445 q 446 461 436 471 q 426 480 408 480 q 350 480 276 372 q 202 263 151 95 l 122 0 z"},"#":{"x_min":0,"x_max":769,"ha":769,"o":"m 342 424 l 293 284 l 434 284 l 484 424 z m 380 711 l 445 711 l 363 481 l 503 481 l 585 711 l 649 711 l 568 481 l 718 481 l 698 424 l 547 424 l 498 284 l 660 284 l 639 228 l 478 228 l 397 -1 l 332 -1 l 413 228 l 273 228 l 192 -1 l 128 -1 l 209 228 l 51 228 l 72 284 l 229 284 l 278 424 l 108 424 l 129 481 l 299 481 z"},",":{"x_min":0,"x_max":259,"ha":259,"o":"m -10 -159 l -23 -140 q 26 -109 48 -86 q 70 -63 70 -43 q 70 -27 45 1 q 20 30 20 56 q 20 80 37 96 q 54 112 79 112 q 106 112 125 89 q 144 66 144 32 q 144 -19 104 -69 q 64 -118 -10 -159 z"},"n":{"x_min":0,"x_max":615,"ha":615,"o":"m 32 0 l 156 392 q 163 413 166 425 q 168 437 168 447 q 168 459 162 466 q 155 472 144 472 q 116 472 79 427 q 42 382 9 306 l -12 306 q 26 400 73 454 q 121 508 164 508 q 199 508 217 482 q 236 456 236 408 q 236 390 233 369 q 230 348 224 324 q 278 417 327 462 q 376 508 423 508 q 464 508 490 478 q 516 448 516 401 q 516 362 504 321 q 493 279 461 213 q 452 194 436 161 q 395 80 395 54 q 395 39 406 28 q 417 17 433 17 q 465 17 503 59 q 541 102 569 171 l 590 171 q 560 87 516 40 q 473 -8 427 -8 q 385 -8 359 24 q 332 56 332 108 q 332 141 347 187 q 362 233 392 290 q 400 306 417 334 q 459 411 459 441 q 459 461 447 474 q 435 486 414 486 q 356 486 285 384 q 213 282 159 115 l 122 0 z"},"h":{"x_min":0,"x_max":567,"ha":567,"o":"m 118 139 l 74 0 l -15 0 l 176 608 q 181 624 183 634 q 185 644 185 648 q 185 667 177 672 q 169 678 136 678 l 104 678 l 112 706 q 122 706 134 705 q 146 705 169 705 q 205 705 237 707 q 270 708 299 712 l 176 324 q 230 417 279 462 q 329 508 375 508 q 416 508 443 478 q 469 448 469 401 q 469 363 458 322 q 446 281 413 213 q 404 194 388 161 q 347 80 347 54 q 347 39 359 28 q 370 17 386 17 q 418 17 456 59 q 494 102 522 171 l 542 171 q 512 87 468 40 q 424 -8 379 -8 q 337 -8 311 24 q 285 56 285 108 q 285 141 300 188 q 315 234 345 290 q 354 306 369 334 q 412 411 412 441 q 412 461 399 473 q 386 486 366 486 q 312 486 238 386 q 164 286 118 139 z"},"z":{"x_min":0,"x_max":450,"ha":450,"o":"m 384 175 q 354 90 305 42 q 257 -7 204 -7 q 176 -7 155 5 q 134 17 114 44 q 98 66 86 74 q 73 83 58 83 q 44 83 37 77 q 29 72 29 62 q 29 54 39 39 q 50 23 50 13 q 50 2 44 -4 q 38 -10 27 -10 q 12 -10 3 3 q -6 16 -6 37 q -6 82 31 136 q 68 191 132 237 q 164 260 230 297 q 346 361 379 415 q 368 408 356 404 q 344 401 328 401 q 301 401 251 411 q 202 422 179 422 q 139 422 109 396 q 80 369 56 312 l 37 312 q 71 405 121 458 q 170 511 222 511 q 247 511 268 500 q 290 489 320 459 q 321 458 323 456 q 344 435 362 435 q 369 435 374 441 q 380 447 380 454 q 380 460 374 471 q 367 483 367 490 q 367 500 375 507 q 382 514 392 514 q 405 514 412 504 q 419 493 419 474 q 419 423 372 361 q 326 299 249 250 q 221 232 167 203 q 59 145 33 100 q 46 110 60 115 q 74 119 92 119 q 134 119 190 98 q 246 77 262 77 q 292 77 318 102 q 343 126 362 175 z"},"B":{"x_min":0,"x_max":655,"ha":655,"o":"m 227 353 l 148 105 q 144 91 141 81 q 139 71 139 64 q 139 44 154 37 q 169 30 212 30 q 273 30 306 36 q 338 43 361 58 q 397 82 423 137 q 448 193 448 250 q 448 304 420 329 q 392 353 329 353 z m 236 384 l 311 384 q 372 384 407 391 q 442 399 463 416 q 493 439 512 488 q 532 536 532 585 q 532 634 503 653 q 475 673 399 673 q 352 673 336 662 q 321 650 303 595 z m -87 0 l -77 30 l -26 30 q 9 30 24 42 q 40 55 54 100 l 213 604 q 218 619 220 630 q 223 642 223 649 q 223 662 214 667 q 204 673 183 673 l 177 673 l 122 673 l 130 701 l 400 701 q 517 701 575 664 q 634 626 634 551 q 634 478 577 431 q 520 385 408 368 q 476 350 513 309 q 551 268 551 213 q 551 112 459 56 q 368 0 201 0 z"},"K":{"x_min":0,"x_max":669,"ha":669,"o":"m 224 339 l 525 578 q 552 600 562 614 q 573 627 573 640 q 573 657 559 664 q 545 671 504 673 l 512 701 l 769 701 l 760 673 q 726 673 690 656 q 654 639 577 578 l 393 435 l 467 101 q 477 55 492 42 q 507 30 547 30 l 585 30 l 575 0 l 294 0 l 303 30 l 326 30 q 356 30 367 38 q 378 45 378 65 q 378 77 377 83 q 376 90 375 97 l 319 378 l 209 293 l 148 100 q 144 86 141 75 q 139 64 139 56 q 139 42 149 36 q 159 30 184 30 l 233 30 l 223 0 l -83 0 l -73 30 l -24 30 q 10 30 26 42 q 42 55 56 100 l 215 604 q 219 617 222 629 q 224 641 224 649 q 224 663 214 668 q 204 674 179 674 l 130 674 l 139 701 l 444 701 l 436 674 l 387 674 q 352 674 336 661 q 321 648 307 604 z"},"R":{"x_min":0,"x_max":683,"ha":683,"o":"m 239 384 l 321 384 q 378 384 408 390 q 438 396 457 411 q 490 436 514 491 q 539 545 539 594 q 539 634 510 654 q 482 674 424 674 l 382 674 q 330 674 314 625 q 313 622 313 620 z m 148 100 q 144 86 141 75 q 139 64 139 56 q 139 42 149 36 q 159 30 184 30 l 233 30 l 223 0 l -83 0 l -73 30 l -24 30 q 10 30 26 42 q 42 55 56 100 l 215 604 q 219 617 222 629 q 224 641 224 649 q 224 663 214 668 q 204 674 179 674 l 130 674 l 139 701 l 426 701 q 529 701 584 662 q 639 623 639 550 q 639 466 574 417 q 509 368 395 365 q 456 348 488 316 q 519 285 519 241 q 519 199 490 135 q 461 72 461 52 q 461 37 469 30 q 478 22 494 22 q 522 22 553 57 q 584 93 607 152 l 636 152 q 610 71 569 31 q 528 -10 473 -10 q 426 -10 397 17 q 369 43 369 88 q 369 128 397 196 q 426 264 426 288 q 426 325 395 341 q 365 356 288 356 l 230 356 z"},"T":{"x_min":0,"x_max":628,"ha":628,"o":"m 198 100 l 357 604 q 360 616 362 626 q 364 637 364 646 q 364 659 352 667 q 339 674 317 674 q 246 674 198 625 q 149 575 103 453 l 75 453 l 148 701 l 711 701 l 637 453 l 610 453 q 615 477 618 496 q 620 515 620 533 q 620 604 594 638 q 567 672 511 672 q 483 672 469 659 q 455 647 440 598 l 290 100 q 285 84 283 74 q 281 63 281 56 q 281 42 291 36 q 301 30 326 30 l 375 30 l 365 0 l 59 0 l 69 30 l 118 30 q 152 30 168 42 q 184 55 198 100 z"},"P":{"x_min":0,"x_max":609,"ha":609,"o":"m 228 358 l 306 358 q 373 358 403 365 q 434 372 455 389 q 487 414 512 472 q 537 531 537 581 q 537 629 506 651 q 475 673 405 673 l 381 673 q 347 673 334 662 q 321 652 307 608 z m 148 100 q 144 84 141 74 q 139 63 139 56 q 139 42 149 36 q 159 30 184 30 l 250 30 l 241 0 l -83 0 l -73 30 l -24 30 q 10 30 26 42 q 42 55 56 100 l 215 604 q 219 617 222 629 q 224 641 224 649 q 224 662 215 667 q 207 673 185 673 l 179 673 l 130 673 l 139 701 l 381 701 q 503 701 567 657 q 631 612 631 527 q 631 433 556 380 q 480 328 343 328 l 218 328 z"},"|":{"x_min":0,"x_max":500,"ha":500,"o":"m 219 764 l 281 764 l 281 -236 l 219 -236 z"},"t":{"x_min":0,"x_max":368,"ha":368,"o":"m 301 170 q 273 83 227 35 q 182 -12 125 -12 q 84 -12 60 13 q 35 39 35 80 q 35 100 40 124 q 45 148 57 187 l 147 470 l 59 470 l 70 505 l 158 505 l 213 679 l 303 679 l 247 505 l 345 505 l 334 470 l 236 470 l 117 90 q 113 78 112 70 q 110 62 110 56 q 110 39 120 29 q 130 19 149 19 q 184 19 219 59 q 253 99 279 170 z"},"M":{"x_min":0,"x_max":803,"ha":803,"o":"m -88 0 l -79 30 q -76 29 -72 29 q -68 29 -61 29 q -10 29 22 58 q 55 88 75 154 l 223 623 q 225 630 226 636 q 227 642 227 646 q 227 661 217 667 q 207 673 178 673 l 124 673 l 133 701 l 352 701 l 331 140 l 662 701 l 887 701 l 878 673 l 829 673 q 769 673 745 595 l 745 595 l 589 102 q 585 88 583 78 q 581 68 581 61 q 581 44 592 37 q 604 30 629 30 l 675 30 l 666 0 l 366 0 l 375 30 l 422 30 q 477 30 497 95 l 498 99 l 676 668 l 280 -6 l 247 -6 l 268 665 l 103 139 q 97 122 94 109 q 92 96 92 86 q 92 58 107 44 q 122 30 153 30 l 178 30 l 171 0 z"},"g":{"x_min":0,"x_max":544,"ha":544,"o":"m 374 322 q 380 340 383 358 q 386 376 386 392 q 386 435 363 462 q 339 489 303 489 q 269 489 240 465 q 210 441 184 392 q 142 315 113 223 q 85 131 85 84 q 85 50 101 33 q 117 15 147 15 q 203 15 260 77 q 317 139 346 232 z m 278 18 l 318 120 q 277 56 231 23 q 186 -10 139 -10 q 80 -10 43 36 q 6 82 6 158 q 6 228 38 301 q 71 375 128 433 q 165 471 208 491 q 250 511 292 511 q 343 511 372 485 q 400 459 405 408 l 435 505 l 522 505 l 403 130 q 375 39 354 -6 q 333 -51 307 -81 q 264 -132 208 -158 q 153 -185 91 -185 q 31 -185 -8 -157 q -48 -128 -48 -88 q -48 -61 -31 -44 q -13 -27 15 -27 q 40 -27 58 -42 q 75 -57 75 -78 q 75 -95 60 -114 q 45 -133 45 -137 q 45 -147 60 -155 q 75 -162 97 -162 q 155 -162 198 -119 q 241 -77 278 18 z"},"j":{"x_min":0,"x_max":377,"ha":377,"o":"m 307 706 q 334 706 353 688 q 371 669 371 642 q 371 616 352 596 q 333 577 307 577 q 281 577 261 596 q 242 616 242 642 q 242 668 261 687 q 280 706 307 706 z m 80 -37 l 222 413 q 226 425 228 435 q 230 445 230 452 q 230 467 222 475 q 214 483 199 483 q 163 483 124 437 q 84 390 50 308 l 28 308 q 68 408 118 461 q 167 515 220 515 q 258 515 282 490 q 305 465 305 423 q 305 404 299 376 q 293 348 282 313 l 197 43 q 159 -78 111 -131 q 63 -185 -4 -185 q -56 -185 -85 -159 q -115 -133 -115 -88 q -115 -59 -96 -38 q -76 -17 -49 -17 q -27 -17 -13 -31 q 2 -46 2 -67 q 2 -95 -27 -112 q -55 -129 -55 -140 q -55 -149 -44 -156 q -34 -163 -18 -163 q 14 -163 36 -136 q 57 -110 80 -37 z"},"i":{"x_min":0,"x_max":389,"ha":389,"o":"m 289 706 q 316 706 334 688 q 353 669 353 642 q 353 616 334 596 q 315 577 289 577 q 263 577 243 596 q 224 616 224 642 q 224 668 243 687 q 262 706 289 706 z m 340 171 q 301 80 258 35 q 214 -10 165 -10 q 126 -10 102 21 q 78 53 78 104 q 78 140 91 180 q 103 220 136 283 q 146 302 165 335 q 212 419 212 448 q 212 467 201 479 q 190 490 172 490 q 137 490 96 443 q 55 396 18 312 l -3 312 q 36 409 85 461 q 134 513 185 513 q 226 513 251 484 q 276 456 276 408 q 276 369 256 315 q 236 262 186 169 q 159 121 151 98 q 142 75 142 57 q 142 37 152 26 q 162 15 180 15 q 211 15 247 55 q 282 96 318 171 z"},"y":{"x_min":0,"x_max":611,"ha":611,"o":"m -1 305 q 42 409 88 461 q 135 513 185 513 q 226 513 250 483 q 274 453 274 403 q 274 334 193 186 l 191 181 q 188 175 183 166 q 139 84 139 60 q 139 40 153 27 q 166 14 187 14 q 213 14 242 33 q 272 52 303 89 q 346 140 380 200 q 414 259 430 312 l 490 505 l 580 505 l 467 145 q 438 50 406 -4 q 375 -58 330 -99 q 284 -140 231 -163 q 178 -185 129 -185 q 68 -185 33 -159 q -3 -134 -3 -91 q -3 -63 15 -44 q 34 -26 62 -26 q 86 -26 100 -40 q 114 -54 114 -78 q 114 -97 100 -116 q 86 -135 86 -138 q 86 -149 100 -156 q 113 -163 137 -163 q 204 -163 257 -107 q 311 -51 348 59 l 387 173 q 332 81 280 36 q 228 -10 179 -10 q 135 -10 110 21 q 84 52 84 106 q 84 172 146 292 q 156 312 161 321 q 190 378 202 407 q 213 436 213 450 q 213 467 202 477 q 191 487 172 487 q 136 487 96 438 q 55 390 21 305 z"},"@":{"x_min":0,"x_max":986,"ha":986,"o":"m 581 164 q 551 112 513 87 q 476 61 430 61 q 369 61 332 106 q 295 151 295 225 q 295 278 319 331 q 343 383 386 425 q 418 456 457 474 q 495 491 532 491 q 575 491 602 467 q 629 443 640 396 l 666 484 l 736 484 l 653 186 q 653 185 652 184 q 644 155 644 133 q 644 110 656 96 q 669 83 690 83 q 707 83 729 92 q 750 100 770 115 q 830 159 861 228 q 893 297 893 382 q 893 450 869 505 q 844 560 794 604 q 750 643 688 664 q 627 685 558 685 q 467 685 391 656 q 316 628 257 571 q 193 509 161 427 q 128 346 128 247 q 128 162 156 98 q 184 35 244 -16 q 300 -63 372 -88 q 443 -112 528 -112 q 607 -112 683 -86 q 758 -61 827 -11 l 842 -29 q 770 -83 689 -110 q 608 -137 522 -137 q 431 -137 355 -115 q 279 -92 221 -47 q 147 8 109 87 q 71 166 71 262 q 71 362 113 448 q 155 535 235 601 q 299 655 377 682 q 455 709 545 709 q 714 709 815 618 q 916 526 916 374 q 916 297 888 229 q 859 161 808 114 q 780 88 748 75 q 715 61 682 61 q 635 61 609 87 q 584 112 581 164 z m 536 471 q 510 471 488 456 q 466 441 443 407 q 408 354 387 293 q 366 231 366 183 q 366 138 386 111 q 406 85 439 85 q 471 85 500 107 q 530 128 557 172 q 585 218 602 271 q 618 324 618 367 q 618 413 595 442 q 572 471 536 471 z"},".":{"x_min":0,"x_max":259,"ha":259,"o":"m 26 48 q 26 73 43 90 q 60 108 85 108 q 109 108 126 90 q 144 73 144 48 q 144 24 126 6 q 109 -11 85 -11 q 61 -11 43 6 q 26 24 26 48 z"},"p":{"x_min":0,"x_max":602,"ha":602,"o":"m 409 487 q 374 487 332 454 q 290 422 255 366 q 219 309 195 233 q 171 158 171 108 q 171 64 192 38 q 213 11 247 11 q 274 11 302 30 q 329 49 356 88 q 375 115 394 154 q 413 193 433 246 q 454 302 464 343 q 474 384 474 413 q 474 448 457 467 q 439 487 409 487 z m -132 -174 l -124 -148 l -77 -148 q -36 -148 -21 -136 q -6 -125 8 -78 l 158 399 q 165 421 167 432 q 170 443 170 450 q 170 464 163 472 q 156 480 143 480 q 115 480 75 433 q 36 387 0 310 l -24 310 q 26 413 72 462 q 119 511 166 511 q 203 511 224 487 q 245 463 245 422 q 245 415 244 405 q 244 395 242 383 q 288 449 331 480 q 374 511 419 511 q 477 511 513 461 q 550 411 550 330 q 550 265 523 203 q 496 141 444 88 q 398 41 348 16 q 297 -10 250 -10 q 210 -10 184 16 q 157 42 152 86 l 95 -91 q 94 -93 93 -97 q 88 -115 88 -127 q 88 -138 97 -143 q 107 -148 127 -148 l 182 -148 l 176 -174 z"},"X":{"x_min":0,"x_max":662,"ha":662,"o":"m -95 0 l -86 30 l -82 30 q -36 30 14 62 q 64 94 132 168 l 299 348 l 220 616 q 208 656 195 665 q 182 674 138 674 l 107 674 l 116 701 l 401 701 l 392 674 l 350 674 q 323 674 313 668 q 303 663 303 648 q 303 642 307 628 q 309 623 309 621 l 369 419 l 512 572 q 529 589 538 606 q 547 623 547 635 q 547 655 530 665 q 514 674 477 674 l 450 674 l 460 701 l 737 701 l 729 674 l 723 674 q 651 674 572 591 l 564 583 l 378 387 l 470 77 q 478 50 491 40 q 503 30 540 30 l 581 30 l 571 0 l 278 0 l 288 30 l 315 30 q 350 30 364 40 q 377 49 377 72 q 377 84 367 121 l 366 123 l 309 317 l 155 150 q 136 129 127 113 q 119 97 119 81 q 119 56 135 43 q 152 30 185 30 l 214 30 l 205 0 z"},"*":{"x_min":0,"x_max":500,"ha":500,"o":"m 307 501 l 307 492 q 307 456 326 413 q 344 370 344 354 q 344 335 332 324 q 320 312 300 312 q 279 312 267 323 q 255 335 255 355 q 255 370 273 411 q 291 452 291 490 l 291 503 q 255 483 220 437 q 185 391 159 391 q 142 391 129 404 q 116 417 116 435 q 116 458 135 471 q 153 483 189 485 q 218 486 242 494 q 266 502 283 516 q 248 541 187 545 q 177 545 172 546 q 147 548 132 562 q 116 575 116 594 q 116 612 129 626 q 141 640 159 640 q 185 640 219 594 q 254 547 292 528 l 292 537 q 292 573 273 616 q 255 660 255 673 q 255 693 267 705 q 280 718 300 718 q 321 718 333 707 q 344 696 344 675 q 344 660 326 617 q 308 575 308 538 l 308 526 q 344 546 379 593 q 413 639 441 639 q 457 639 470 625 q 483 611 483 594 q 483 576 468 562 q 452 549 432 547 q 430 547 424 546 q 348 540 316 514 q 355 490 415 485 q 423 484 427 484 q 452 482 467 468 q 483 454 483 433 q 483 417 469 403 q 455 389 438 389 q 413 389 379 436 q 344 483 307 501 z"},"Y":{"x_min":0,"x_max":612,"ha":612,"o":"m 282 100 q 277 84 275 74 q 273 63 273 56 q 273 42 283 36 q 293 30 318 30 l 376 30 l 367 0 l 52 0 l 61 30 l 110 30 q 145 30 160 42 q 175 55 190 100 l 254 307 l 165 623 q 156 655 144 664 q 131 673 95 673 l 58 673 l 67 701 l 371 701 l 362 673 l 308 673 q 280 673 268 666 q 256 659 256 644 q 256 641 258 634 q 260 627 261 624 l 335 337 l 511 555 q 528 576 536 594 q 545 611 545 624 q 545 649 525 661 q 504 673 462 673 l 451 673 l 459 701 l 715 701 l 706 673 q 672 672 645 655 q 617 638 569 580 l 346 308 z"},"c":{"x_min":0,"x_max":459,"ha":459,"o":"m 370 184 l 391 184 q 349 94 285 42 q 221 -11 154 -11 q 88 -11 48 35 q 8 81 8 157 q 8 225 40 300 q 71 375 123 430 q 161 471 205 493 q 249 515 292 515 q 346 515 382 480 q 418 446 418 395 q 418 355 397 330 q 375 305 344 305 q 321 305 306 319 q 291 333 291 355 q 291 375 305 388 q 318 401 348 408 q 366 413 373 419 q 380 425 380 436 q 380 458 355 475 q 330 493 298 493 q 266 493 240 472 q 213 452 190 409 q 175 382 158 340 q 142 297 123 237 q 107 187 100 155 q 93 122 93 100 q 93 61 113 38 q 132 16 167 16 q 220 16 275 61 q 330 106 370 184 z"},"!":{"x_min":0,"x_max":373,"ha":373,"o":"m 28 55 q 28 83 47 102 q 66 121 93 121 q 120 121 140 102 q 159 83 159 55 q 159 27 140 8 q 120 -11 93 -11 q 66 -11 47 9 q 28 28 28 55 z m 122 191 l 210 618 q 222 678 237 699 q 252 719 280 719 q 306 719 322 705 q 338 691 338 669 q 338 657 333 640 q 329 624 319 600 l 146 191 z"},"/":{"x_min":0,"x_max":278,"ha":278,"o":"m -37 -93 l -91 -93 l 283 718 l 338 718 z"},"[":{"x_min":0,"x_max":359,"ha":359,"o":"m 80 -58 q 73 -79 70 -92 q 67 -104 67 -113 q 67 -129 80 -135 q 94 -142 126 -142 l 172 -142 l 163 -170 l -48 -170 l 227 701 l 428 701 l 419 673 l 372 673 q 328 673 316 662 q 304 652 291 611 z"},"6":{"x_min":0,"x_max":519,"ha":519,"o":"m 284 414 q 251 414 221 394 q 191 375 169 338 q 142 293 123 230 q 105 167 105 118 q 105 74 132 45 q 159 15 199 15 q 236 15 264 40 q 292 65 316 119 q 342 176 356 231 q 371 286 371 322 q 371 364 348 389 q 324 414 284 414 z m 150 348 q 181 394 220 418 q 259 442 302 442 q 372 442 415 391 q 459 340 459 258 q 459 148 388 70 q 317 -9 218 -9 q 131 -9 81 52 q 31 114 31 221 q 31 313 69 416 q 106 519 166 591 q 211 645 269 676 q 327 706 384 706 q 446 706 486 672 q 526 638 526 585 q 526 546 503 521 q 480 495 446 495 q 420 495 402 512 q 385 528 385 553 q 385 571 396 586 q 407 601 426 609 q 430 611 439 614 q 469 624 469 639 q 469 655 445 669 q 421 683 391 683 q 312 683 256 606 q 201 530 150 348 z"},"r":{"x_min":0,"x_max":470,"ha":470,"o":"m 32 0 l 156 392 q 163 413 166 425 q 168 437 168 447 q 168 459 162 466 q 155 472 144 472 q 116 472 79 427 q 42 382 9 306 l -12 306 q 26 400 73 453 q 121 507 164 507 q 200 507 219 482 q 237 457 237 408 q 237 403 236 394 q 235 385 232 355 q 262 427 301 467 q 339 506 381 506 q 414 506 436 482 q 457 459 457 423 q 457 390 438 368 q 419 346 391 346 q 369 346 355 359 q 342 372 342 393 q 342 418 368 438 q 394 458 394 466 q 394 472 387 477 q 381 481 371 481 q 324 481 272 393 q 220 306 168 139 l 125 0 z"},"2":{"x_min":0,"x_max":519,"ha":519,"o":"m -30 0 q -21 59 20 123 q 61 188 121 240 q 160 274 218 317 q 275 360 290 373 q 340 418 363 460 q 386 501 386 547 q 386 603 349 641 q 312 678 257 678 q 207 678 168 647 q 130 617 130 581 q 130 548 177 538 q 179 537 180 537 q 208 530 219 519 q 231 507 231 487 q 231 462 213 444 q 194 427 168 427 q 132 427 107 458 q 82 489 82 536 q 82 606 137 656 q 193 705 273 705 q 361 705 422 650 q 482 595 482 514 q 482 472 464 435 q 447 397 414 370 q 372 334 271 288 q 232 269 212 259 q 142 223 96 181 q 50 139 38 100 l 279 100 q 330 100 345 112 q 360 124 375 170 l 388 213 l 409 213 l 342 0 z"},"{":{"x_min":0,"x_max":500,"ha":500,"o":"m 413 740 l 413 715 q 344 714 318 688 q 293 662 293 586 l 293 516 q 293 406 263 365 q 233 325 153 310 q 233 295 263 255 q 293 214 293 104 l 293 34 q 293 -42 318 -68 q 343 -93 413 -94 l 413 -119 l 408 -119 q 302 -119 263 -83 q 223 -47 223 50 l 223 154 q 223 231 194 260 q 166 290 86 296 l 86 325 q 167 333 195 361 q 223 390 223 467 l 223 571 q 223 668 263 704 q 302 740 408 740 z"},"9":{"x_min":0,"x_max":519,"ha":519,"o":"m 241 284 q 274 284 304 304 q 335 324 357 360 q 384 404 402 467 q 420 530 420 580 q 420 624 393 654 q 366 683 326 683 q 290 683 261 658 q 232 632 209 579 q 184 523 169 468 q 155 413 155 376 q 155 333 178 309 q 201 284 241 284 z m 375 350 q 344 304 305 280 q 267 256 224 256 q 154 256 110 307 q 66 358 66 440 q 66 550 137 628 q 208 707 307 707 q 394 707 444 646 q 494 584 494 477 q 494 384 457 281 q 419 178 359 107 q 314 53 256 22 q 199 -8 141 -8 q 79 -8 39 26 q 0 60 0 113 q 0 152 23 177 q 45 203 79 203 q 106 203 123 187 q 140 170 140 143 q 140 124 127 109 q 114 94 91 86 l 91 86 q 56 75 56 59 q 56 42 81 29 q 105 15 139 15 q 214 15 270 94 q 326 172 375 350 z"}," ":{"x_min":0,"x_max":259,"ha":259,"o":""},"I":{"x_min":0,"x_max":374,"ha":374,"o":"m 153 100 q 147 80 145 71 q 143 62 143 56 q 143 42 153 36 q 164 30 189 30 l 237 30 l 228 0 l -78 0 l -69 30 l -20 30 q 15 30 30 42 q 45 55 60 100 l 219 604 q 224 619 227 630 q 229 642 229 649 q 229 663 219 668 q 208 674 183 674 l 135 674 l 144 701 l 449 701 l 440 674 l 392 674 q 357 674 342 662 q 327 649 312 604 z"},"H":{"x_min":0,"x_max":764,"ha":764,"o":"m 547 387 l 616 604 q 621 619 624 630 q 626 641 626 648 q 626 662 616 668 q 605 674 581 674 l 532 674 l 541 701 l 846 701 l 837 674 l 789 674 q 754 674 739 661 q 723 648 709 604 l 550 100 q 544 80 542 71 q 540 62 540 56 q 540 42 551 36 q 562 30 586 30 l 644 30 l 635 0 l 320 0 l 329 30 l 378 30 q 413 30 428 42 q 443 55 458 100 l 536 352 l 227 352 l 148 100 q 144 84 141 74 q 139 63 139 56 q 139 42 149 36 q 159 30 184 30 l 233 30 l 223 0 l -83 0 l -73 30 l -24 30 q 10 30 26 42 q 42 55 56 100 l 215 604 q 219 617 222 629 q 224 641 224 649 q 224 663 214 668 q 204 674 179 674 l 130 674 l 139 701 l 444 701 l 436 674 l 387 674 q 353 674 337 662 q 322 649 307 604 l 238 387 z"},"4":{"x_min":0,"x_max":519,"ha":519,"o":"m 71 0 l 79 28 l 136 28 q 173 28 184 38 q 194 49 206 87 l 236 185 l 4 185 l 14 218 l 475 706 l 493 706 l 339 218 l 465 218 l 455 185 l 329 185 l 297 85 q 294 76 292 67 q 291 58 291 49 q 291 37 299 32 q 306 28 330 28 l 402 28 l 393 0 z m 247 218 l 346 534 l 48 218 z"},"~":{"x_min":0,"x_max":833,"ha":833,"o":"m 747 370 l 747 306 q 698 271 651 253 q 604 236 558 236 q 537 236 514 240 q 491 245 465 253 q 450 258 422 268 q 324 303 275 303 q 234 303 190 285 q 146 267 87 225 l 87 290 q 138 326 186 343 q 233 361 276 361 q 303 361 333 355 q 362 349 418 329 q 424 327 435 323 q 515 294 559 294 q 601 294 645 312 q 689 330 747 370 z"},"D":{"x_min":0,"x_max":697,"ha":697,"o":"m 154 120 q 148 102 145 87 q 142 71 142 64 q 142 45 156 38 q 169 31 205 31 q 276 31 333 53 q 390 76 430 120 q 458 152 481 192 q 504 232 527 293 q 553 363 567 424 q 581 485 581 529 q 581 604 541 638 q 500 672 409 672 q 354 672 336 659 q 319 647 306 605 z m -83 0 l -73 30 l -24 30 q 10 30 26 42 q 42 55 56 100 l 215 604 q 219 617 222 629 q 224 641 224 649 q 224 663 214 668 q 204 674 179 674 l 130 674 l 139 701 l 398 701 q 537 701 604 640 q 672 580 672 455 q 672 347 622 247 q 573 146 486 80 q 431 37 363 19 q 296 0 181 0 z"},"^":{"x_min":0,"x_max":1000,"ha":1000,"o":"m 456 714 l 543 714 l 797 438 l 752 438 l 499 651 l 245 438 l 201 438 z"},"0":{"x_min":0,"x_max":519,"ha":519,"o":"m 352 683 q 316 683 283 652 q 250 621 222 559 q 201 513 181 460 q 161 407 142 348 q 114 259 101 201 q 88 144 88 111 q 88 66 109 42 q 130 17 168 17 q 207 17 239 47 q 271 77 297 139 q 318 188 341 251 q 363 314 385 385 q 408 462 420 513 q 431 563 431 588 q 431 635 411 659 q 391 683 352 683 z m 501 484 q 501 389 463 288 q 424 188 356 106 q 309 49 262 20 q 214 -9 169 -9 q 99 -9 57 51 q 16 111 16 215 q 16 308 52 406 q 89 503 155 586 q 200 643 252 674 q 304 706 353 706 q 421 706 461 646 q 501 586 501 484 z"},"F":{"x_min":0,"x_max":600,"ha":600,"o":"m -83 0 l -73 30 l -24 30 q 10 30 26 42 q 42 55 56 100 l 215 604 q 219 617 222 629 q 224 641 224 649 q 224 663 214 668 q 204 674 179 674 l 130 674 l 139 701 l 669 701 l 585 426 l 558 426 q 567 462 571 487 q 575 512 575 532 q 575 608 537 641 q 498 674 409 674 l 389 674 q 348 674 335 664 q 322 654 308 611 l 235 377 l 283 377 q 352 377 387 408 q 422 439 444 521 l 471 521 l 364 180 l 336 180 q 346 211 351 234 q 356 257 356 275 q 356 315 333 332 q 310 349 250 349 l 226 349 l 140 75 q 140 74 139 71 q 137 62 137 55 q 137 41 148 35 q 158 30 189 30 l 239 30 l 229 0 z"},"`":{"x_min":0,"x_max":500,"ha":500,"o":"m 269 717 l 374 570 l 341 570 l 222 669 q 205 683 199 692 q 194 701 194 711 q 194 725 204 735 q 214 745 227 745 q 237 745 248 738 q 259 730 269 717 z"},"k":{"x_min":0,"x_max":576,"ha":576,"o":"m -16 0 l 182 628 l 183 630 q 189 651 189 659 q 189 670 181 674 q 173 678 146 678 l 107 678 l 116 706 l 148 706 q 188 706 227 708 q 265 709 303 712 l 166 273 l 202 273 q 251 273 276 288 q 300 302 316 340 q 321 352 331 376 q 386 512 458 512 q 494 512 518 489 q 543 466 543 433 q 543 406 528 389 q 513 371 490 371 q 472 371 459 383 q 447 395 447 412 q 447 429 463 445 q 480 461 480 470 q 480 478 472 483 q 464 489 453 489 q 412 489 378 399 q 370 376 365 365 q 346 317 321 292 q 296 267 260 259 q 303 252 326 230 q 350 208 350 175 q 350 143 333 101 q 315 60 315 48 q 315 38 323 31 q 332 24 345 24 q 376 24 414 66 q 451 108 474 173 l 497 173 q 467 88 420 40 q 373 -8 320 -8 q 281 -8 257 15 q 234 39 234 78 q 234 110 252 155 q 271 199 271 214 q 271 229 253 237 q 235 245 202 245 l 157 245 l 79 0 z"},"u":{"x_min":0,"x_max":615,"ha":615,"o":"m 546 505 l 423 113 q 422 111 421 107 q 411 73 411 57 q 411 45 417 39 q 423 33 435 33 q 460 33 494 71 q 528 108 558 172 l 580 172 q 545 92 500 44 q 454 -3 414 -3 q 379 -3 361 23 q 343 48 343 97 q 343 116 346 136 q 349 156 355 180 q 299 84 250 38 q 201 -8 156 -8 q 115 -8 89 24 q 63 55 63 105 q 63 142 75 184 q 87 227 118 291 q 127 310 143 342 q 184 424 184 451 q 184 466 173 477 q 162 487 145 487 q 109 487 69 438 q 28 390 3 313 l -18 313 q 10 404 57 458 q 104 511 154 511 q 195 511 220 480 q 246 448 246 397 q 246 364 231 317 q 215 271 186 215 q 178 200 163 172 q 119 94 119 61 q 119 43 132 31 q 145 18 162 18 q 219 18 293 119 q 368 220 413 366 l 456 505 z"},"]":{"x_min":0,"x_max":359,"ha":359,"o":"m 223 589 q 229 607 232 621 q 235 634 235 644 q 235 660 222 666 q 208 673 176 673 l 131 673 l 140 701 l 350 701 l 76 -170 l -125 -170 l -116 -142 l -70 -142 q -25 -142 -13 -131 q 0 -120 12 -80 z"},"U":{"x_min":0,"x_max":687,"ha":687,"o":"m 117 674 l 126 701 l 442 701 l 433 674 l 400 674 q 351 674 334 659 q 317 645 299 589 l 184 222 q 172 184 167 158 q 162 132 162 112 q 162 67 194 41 q 226 15 282 15 q 360 15 409 62 q 458 109 493 219 l 600 562 q 606 580 609 594 q 612 608 612 619 q 612 646 595 660 q 579 674 547 674 l 524 674 l 533 701 l 774 701 l 766 674 q 708 671 679 645 q 649 619 624 537 l 521 208 q 483 87 424 36 q 365 -16 267 -16 q 181 -16 129 26 q 78 68 78 138 q 78 165 85 198 q 91 231 112 297 l 208 602 q 212 614 214 625 q 216 635 216 641 q 216 661 205 667 q 194 674 161 674 z"},"o":{"x_min":0,"x_max":537,"ha":537,"o":"m 90 127 q 90 76 119 44 q 148 12 195 12 q 230 12 261 34 q 292 56 315 98 q 327 119 339 149 q 351 178 363 216 q 381 274 390 317 q 399 360 399 393 q 399 438 370 466 q 342 494 296 494 q 264 494 236 474 q 207 455 182 415 q 167 392 152 355 q 136 318 119 267 q 104 223 97 189 q 90 155 90 127 z m 204 -12 q 120 -12 63 50 q 7 111 7 205 q 7 265 30 323 q 54 381 97 429 q 137 472 184 495 q 231 517 283 517 q 374 517 428 459 q 483 401 483 305 q 483 246 458 185 q 434 125 391 78 q 352 36 302 12 q 252 -12 204 -12 z"},"N":{"x_min":0,"x_max":676,"ha":676,"o":"m -86 0 l -76 30 l -69 30 q -12 30 20 58 q 52 86 75 158 l 215 604 q 218 614 220 623 q 222 631 222 635 q 222 657 208 665 q 193 673 153 673 l 126 673 l 135 701 l 331 701 l 455 135 l 593 575 q 597 587 599 598 q 601 610 601 621 q 601 648 584 661 q 567 673 529 673 l 501 673 l 510 701 l 758 701 l 749 673 l 721 673 q 684 673 664 653 q 644 634 623 570 l 444 0 l 398 0 l 257 639 l 104 156 q 98 137 94 118 q 91 100 91 84 q 91 55 108 42 q 126 30 168 30 l 196 30 l 186 0 z"},"+":{"x_min":0,"x_max":833,"ha":833,"o":"m 388 596 l 446 596 l 446 327 l 709 327 l 709 270 l 446 270 l 446 0 l 388 0 l 388 270 l 124 270 l 124 327 l 388 327 z"},"G":{"x_min":0,"x_max":704,"ha":704,"o":"m 348 305 l 360 333 l 684 333 l 673 305 l 630 305 q 594 305 578 291 q 562 277 550 235 l 480 0 l 455 0 l 455 14 q 455 30 448 40 q 442 50 431 50 q 428 50 365 16 q 301 -17 238 -17 q 145 -17 84 54 q 24 125 24 235 q 24 319 58 410 q 91 501 152 578 q 204 645 269 680 q 334 716 404 716 q 438 716 470 707 q 502 699 533 681 q 538 678 548 672 q 593 645 614 645 q 635 645 652 660 q 669 674 679 701 l 705 701 l 618 429 l 593 429 q 595 449 597 468 q 598 486 598 498 q 598 581 546 634 q 494 687 414 687 q 355 687 312 651 q 268 616 226 532 q 175 431 145 326 q 114 222 114 161 q 114 91 150 52 q 187 12 251 12 q 315 12 365 53 q 415 94 436 165 l 457 235 q 462 253 465 263 q 467 273 467 280 q 467 293 457 299 q 446 305 421 305 z"},"q":{"x_min":0,"x_max":546,"ha":546,"o":"m 333 -91 q 329 -102 328 -110 q 326 -118 326 -127 q 326 -138 335 -143 q 345 -148 365 -148 l 412 -148 l 404 -174 l 105 -174 l 113 -148 l 161 -148 q 201 -148 215 -137 q 229 -126 245 -78 l 304 100 q 266 46 224 18 q 182 -10 139 -10 q 80 -10 43 36 q 6 82 6 158 q 6 228 38 301 q 71 375 128 433 q 164 470 207 491 q 250 511 292 511 q 322 511 346 501 q 370 490 388 469 q 392 464 399 454 q 421 426 439 426 q 457 426 473 447 q 489 467 500 505 l 522 505 z m 374 322 q 380 340 383 358 q 386 376 386 392 q 386 435 363 462 q 339 489 303 489 q 269 489 240 465 q 210 441 184 392 q 142 315 113 223 q 85 131 85 84 q 85 50 101 33 q 117 15 147 15 q 203 15 260 77 q 317 139 346 232 z"},"d":{"x_min":0,"x_max":595,"ha":595,"o":"m 374 322 q 380 340 383 358 q 386 376 386 392 q 386 435 363 462 q 339 489 303 489 q 269 489 240 465 q 210 441 184 392 q 142 315 113 223 q 85 131 85 84 q 85 50 101 33 q 117 15 147 15 q 203 15 260 77 q 317 138 346 232 z m 318 120 q 277 55 232 23 q 188 -10 139 -10 q 80 -10 43 36 q 6 82 6 158 q 6 228 38 301 q 71 375 128 433 q 164 471 207 491 q 249 511 292 511 q 341 511 370 486 q 398 461 403 415 l 463 608 q 467 623 470 634 q 472 644 472 648 q 472 667 464 672 q 456 678 423 678 l 391 678 l 400 706 q 410 706 421 705 q 433 705 456 705 q 492 705 524 707 q 556 708 586 712 l 392 93 q 392 92 391 90 q 383 66 383 49 q 383 35 390 28 q 396 21 409 21 q 437 21 472 61 q 507 101 541 171 l 562 171 q 522 82 478 36 q 433 -10 386 -10 q 353 -10 334 13 q 315 37 315 78 q 315 95 317 114 q 318 119 318 120 z"},"1":{"x_min":0,"x_max":519,"ha":519,"o":"m 245 106 q 241 93 239 83 q 237 74 237 67 q 237 46 249 37 q 260 28 287 28 l 322 28 l 314 0 l 1 0 l 9 28 l 65 28 q 130 28 155 110 q 158 118 159 122 l 270 474 q 276 494 278 506 q 281 518 281 524 q 281 543 265 552 q 250 560 208 560 l 130 560 l 139 586 l 152 586 q 239 586 304 615 q 370 645 417 706 l 435 706 z"},"5":{"x_min":0,"x_max":519,"ha":519,"o":"m 208 697 l 231 697 q 260 674 289 663 q 317 653 351 653 q 385 653 414 662 q 444 672 474 692 l 487 684 q 458 629 409 601 q 361 572 298 572 q 272 572 250 576 q 227 581 206 590 q 185 518 168 473 q 152 428 133 387 q 162 415 195 428 q 228 441 266 441 q 345 441 395 388 q 445 335 445 251 q 445 142 366 66 q 287 -9 171 -9 q 89 -9 40 30 q -9 68 -9 133 q -9 170 14 197 q 37 224 68 224 q 97 224 115 208 q 132 192 132 165 q 132 144 119 127 q 106 110 83 100 q 81 99 76 97 q 49 85 49 70 q 49 49 80 33 q 112 17 155 17 q 195 17 228 34 q 261 52 283 85 q 314 131 335 200 q 357 269 357 318 q 357 368 331 393 q 304 418 252 418 q 215 418 180 398 q 144 378 123 346 q 118 338 111 321 q 99 293 83 293 q 74 293 67 298 q 61 304 61 312 q 61 321 84 354 q 107 386 122 417 q 146 467 169 541 q 191 615 208 697 z"}}}
